<svg width="47" height="9" viewBox="0 0 47 9" fill="none" xmlns="http://www.w3.org/2000/svg">
<path fill-rule="evenodd" clip-rule="evenodd" d="M6.60231 1.872C6.33031 1.872 6.09431 1.78 5.89431 1.596C5.70231 1.412 5.60631 1.192 5.60631 0.936C5.60631 0.68 5.70231 0.46 5.89431 0.276C6.09431 0.092 6.33031 0 6.60231 0C6.87431 0 7.10631 0.092 7.29831 0.276C7.49031 0.46 7.58631 0.68 7.58631 0.936C7.58631 1.192 7.49031 1.412 7.29831 1.596C7.10631 1.78 6.87431 1.872 6.60231 1.872ZM5.57031 2.556H7.62231V8.076H5.57031V2.556ZM39.2762 6.26398C39.2682 6.10398 39.2642 5.95198 39.2642 5.80798V3.73198H40.5362V2.55598H39.2642V1.15198L37.7642 1.23598L37.2242 2.55598L36.3242 2.63998V3.73198H37.2242V6.68398C37.2242 7.19598 37.3722 7.57598 37.6682 7.82398C37.9722 8.06398 38.4002 8.18398 38.9522 8.18398C39.2162 8.18398 39.4922 8.15998 39.7802 8.11198C40.0762 8.06398 40.3002 8.01198 40.4522 7.95598C40.4522 7.45198 40.4162 7.00798 40.3442 6.62398L39.9362 6.63598C39.6002 6.63598 39.4042 6.60798 39.3482 6.55198C39.3082 6.51198 39.2842 6.41598 39.2762 6.26398ZM45.6136 6.576C45.0696 6.616 44.6976 6.636 44.4976 6.636C44.1376 6.636 43.8576 6.62 43.6576 6.588C43.4576 6.548 43.3016 6.464 43.1896 6.336C43.0856 6.208 43.0336 6.016 43.0336 5.76H44.7376C45.2576 5.76 45.7896 5.744 46.3336 5.712C46.3336 4.952 46.2776 4.348 46.1656 3.9C46.0536 3.444 45.8176 3.088 45.4576 2.832C45.0976 2.576 44.5576 2.448 43.8376 2.448C43.3896 2.448 42.9376 2.512 42.4816 2.64C42.0256 2.768 41.7136 2.92 41.5456 3.096C41.3856 3.272 41.2416 3.584 41.1136 4.032C40.9936 4.48 40.9336 4.944 40.9336 5.424C40.9336 6.36 41.1776 7.06 41.6656 7.524C42.1616 7.988 42.8696 8.22 43.7896 8.22C44.7736 8.22 45.5736 8.076 46.1896 7.788L46.0096 6.552C45.8176 6.568 45.6856 6.576 45.6136 6.576ZM43.0456 4.188C43.0696 4.004 43.1056 3.9 43.1536 3.876C43.3136 3.788 43.5016 3.744 43.7176 3.744C43.9816 3.744 44.1656 3.824 44.2696 3.984C44.3816 4.144 44.4376 4.416 44.4376 4.8C44.2696 4.808 43.9976 4.812 43.6216 4.812H42.9976C43.0056 4.58 43.0216 4.372 43.0456 4.188ZM34.1145 8.07604L33.9225 7.32004C33.5545 7.92004 33.0425 8.22004 32.3865 8.22004C31.8505 8.22004 31.4105 8.07203 31.0665 7.77604C30.7305 7.47204 30.5625 7.04804 30.5625 6.50404C30.5625 6.16804 30.6585 5.87604 30.8505 5.62804C31.0505 5.37204 31.3225 5.19204 31.6665 5.08804C32.1145 4.96004 32.8065 4.88804 33.7425 4.87204C33.7425 4.34404 33.7185 4.06404 33.6705 4.03204C33.6305 4.00004 33.5025 3.98404 33.2865 3.98404C33.1505 3.98404 32.9625 3.99204 32.7225 4.00804C32.3385 4.02404 31.8185 4.06804 31.1625 4.14004C31.0985 3.70804 31.0505 3.24404 31.0185 2.74803C31.4425 2.66004 31.8865 2.58804 32.3505 2.53204C32.8145 2.46804 33.2305 2.43604 33.5985 2.43604C34.2385 2.43604 34.7185 2.54404 35.0385 2.76004C35.3585 2.96804 35.5665 3.24404 35.6625 3.58804C35.7585 3.93204 35.8025 4.36804 35.7945 4.89604L35.7825 6.66004L35.8185 8.07604H34.1145ZM33.0825 6.87604C33.2905 6.87604 33.5105 6.83604 33.7425 6.75604V5.86804H33.6465C33.0545 5.86804 32.7265 5.90004 32.6625 5.96404C32.6225 6.00404 32.5905 6.06404 32.5665 6.14404C32.5505 6.22404 32.5425 6.30004 32.5425 6.37204C32.5425 6.56404 32.5865 6.69604 32.6745 6.76804C32.7625 6.84004 32.8985 6.87604 33.0825 6.87604ZM29.8708 5.17204C29.8708 3.87604 29.8068 3.13204 29.6788 2.94004C29.5748 2.78004 29.3868 2.65604 29.1148 2.56804C28.8508 2.48004 28.5708 2.43604 28.2748 2.43604C27.9468 2.43604 27.6188 2.50804 27.2908 2.65204C26.9628 2.79604 26.6708 3.02404 26.4148 3.33604C26.3828 3.14404 26.3428 3.01204 26.2948 2.94004C26.1908 2.78004 26.0028 2.65604 25.7308 2.56804C25.4668 2.48004 25.1868 2.43604 24.8908 2.43604C24.5388 2.43604 24.1908 2.52004 23.8468 2.68804C23.5028 2.84804 23.1988 3.10404 22.9348 3.45604L22.7188 2.55604H21.0508V8.07604H23.1028V4.27204C23.3428 4.17604 23.5748 4.12404 23.7988 4.11604L23.9428 4.10404C24.1508 4.10404 24.2868 4.13603 24.3508 4.20004C24.4068 4.25604 24.4348 4.40804 24.4348 4.65604V5.37604V8.07604H26.4868V5.17204C26.4868 4.74804 26.4828 4.45203 26.4748 4.28404C26.6988 4.18804 26.9348 4.13204 27.1828 4.11604L27.3268 4.10404C27.5348 4.10404 27.6708 4.13603 27.7348 4.20004C27.7908 4.25604 27.8188 4.43204 27.8188 4.72804V5.37604V8.07604H29.8708V5.17204ZM18.4937 6.636C18.6937 6.636 19.0657 6.616 19.6097 6.576C19.6817 6.576 19.8137 6.568 20.0057 6.552L20.1857 7.788C19.5697 8.076 18.7697 8.22 17.7857 8.22C16.8657 8.22 16.1577 7.988 15.6617 7.524C15.1737 7.06 14.9297 6.36 14.9297 5.424C14.9297 4.944 14.9897 4.48 15.1097 4.032C15.2377 3.584 15.3817 3.272 15.5417 3.096C15.7097 2.92 16.0217 2.768 16.4777 2.64C16.9337 2.512 17.3857 2.448 17.8337 2.448C18.5537 2.448 19.0937 2.576 19.4537 2.832C19.8137 3.088 20.0497 3.444 20.1617 3.9C20.2737 4.348 20.3297 4.952 20.3297 5.712C19.7857 5.744 19.2537 5.76 18.7337 5.76H17.0297C17.0297 6.016 17.0817 6.208 17.1857 6.336C17.2977 6.464 17.4537 6.548 17.6537 6.588C17.8537 6.62 18.1337 6.636 18.4937 6.636ZM17.1497 3.876C17.1017 3.9 17.0657 4.004 17.0417 4.188C17.0177 4.372 17.0017 4.58 16.9937 4.812H17.6177C17.9937 4.812 18.2657 4.808 18.4337 4.8C18.4337 4.416 18.3777 4.144 18.2657 3.984C18.1617 3.824 17.9777 3.744 17.7137 3.744C17.4977 3.744 17.3097 3.788 17.1497 3.876ZM14.1366 3.56404C14.1046 3.21204 14.0526 2.99204 13.9806 2.90404C13.8526 2.75204 13.6606 2.63604 13.4046 2.55604C13.1566 2.47604 12.8886 2.43604 12.6006 2.43604C11.8006 2.43604 11.1126 2.78404 10.5366 3.48004L10.3086 2.55604H8.64062V8.07604H10.6926V4.27204C10.9326 4.17604 11.1646 4.12404 11.3886 4.11604C11.4446 4.10804 11.5286 4.10404 11.6406 4.10404C11.8726 4.10404 12.0206 4.14404 12.0846 4.22404C12.1246 4.28804 12.1446 4.44804 12.1446 4.70404V5.19604V8.07604H14.1966V5.17204C14.1966 4.45203 14.1766 3.91604 14.1366 3.56404ZM2.676 8.232C3.476 8.232 4.2 8.124 4.848 7.908L4.668 6.636C4.124 6.668 3.772 6.684 3.612 6.684C3.244 6.684 2.952 6.648 2.736 6.576C2.52 6.504 2.36 6.376 2.256 6.192C2.16 6 2.112 5.728 2.112 5.376C2.112 5.112 2.136 4.828 2.184 4.524C2.24 4.22 2.3 4.056 2.364 4.032C2.484 3.984 2.76 3.96 3.192 3.96C3.632 3.96 4.1 3.976 4.596 4.008C4.636 3.8 4.672 3.564 4.704 3.3C4.744 3.028 4.772 2.792 4.788 2.592C4.228 2.496 3.672 2.448 3.12 2.448C2.592 2.448 2.08 2.512 1.584 2.64C1.096 2.768 0.768 2.924 0.6 3.108C0.456 3.268 0.32 3.58 0.192 4.044C0.064 4.5 0 4.964 0 5.436C0 6.396 0.22 7.104 0.66 7.56C1.108 8.008 1.78 8.232 2.676 8.232Z" fill="#FDDD2D"/>
</svg>
